<?xml version="1.0" encoding="UTF-8"?>
<svg id="OBJECTS" xmlns="http://www.w3.org/2000/svg" version="1.1" viewBox="0 0 500 500">
  <defs>
    <style>
      .cls-1 {
        fill: #ddd;
        stroke-width: 0px;
      }
    </style>
  </defs>
  <polygon class="cls-1" points="230.83 241.44 230.83 208.38 272.75 208.38 272.77 208.38 272.77 241.12 272.77 274.5 272.77 325.43 230.83 325.43 230.83 274.5 230.83 241.44"/>
  <path class="cls-1" d="M230.83,241.44v33.06h-38.91v50.93h-41.94v-150.87h41.94v66.87h38.91Z"/>
  <path class="cls-1" d="M350.01,224.86c0,26.31-18.19,49.65-56.49,49.65h-20.76v-33.38h16.69c12.62,0,17.76-6.43,17.76-16.26s-5.14-16.48-17.76-16.48h-58.63v-33.81h62.7c37.44,0,56.49,21.19,56.49,50.29Z"/>
</svg>